<?xml version="1.0" encoding="UTF-8" standalone="no"?>
<svg
   xmlns:dc="http://purl.org/dc/elements/1.1/"
   xmlns:cc="http://creativecommons.org/ns#"
   xmlns:rdf="http://www.w3.org/1999/02/22-rdf-syntax-ns#"
   xmlns:svg="http://www.w3.org/2000/svg"
   xmlns="http://www.w3.org/2000/svg"
   xmlns:sodipodi="http://sodipodi.sourceforge.net/DTD/sodipodi-0.dtd"
   xmlns:inkscape="http://www.inkscape.org/namespaces/inkscape"
   enable-background="new 0 0 24 24"
   height="24"
   viewBox="0 0 24 24"
   width="24"
   version="1.1"
   id="svg8"
   sodipodi:docname="settings-24px.svg"
   inkscape:version="0.92.5 (2060ec1f9f, 2020-04-08)">
  <metadata
     id="metadata14">
    <rdf:RDF>
      <cc:Work
         rdf:about="">
        <dc:format>image/svg+xml</dc:format>
        <dc:type
           rdf:resource="http://purl.org/dc/dcmitype/StillImage" />
      </cc:Work>
    </rdf:RDF>
  </metadata>
  <defs
     id="defs12" />
  <sodipodi:namedview
     pagecolor="#ffffff"
     bordercolor="#666666"
     borderopacity="1"
     objecttolerance="10"
     gridtolerance="10"
     guidetolerance="10"
     inkscape:pageopacity="0"
     inkscape:pageshadow="2"
     inkscape:window-width="1920"
     inkscape:window-height="1031"
     id="namedview10"
     showgrid="false"
     inkscape:zoom="9.8333333"
     inkscape:cx="-4.2711865"
     inkscape:cy="11.79661"
     inkscape:window-x="0"
     inkscape:window-y="25"
     inkscape:window-maximized="1"
     inkscape:current-layer="g6" />
  <g
     id="g6">
    <path
       d="M0,0h24v24H0V0z"
       fill="none"
       id="path2" />
    <path
       d="m 18.179031,12.496135 c 0.03281,-0.246093 0.04922,-0.500388 0.04922,-0.77109 0,-0.262498 -0.01641,-0.524997 -0.05742,-0.771089 L 19.836056,9.65787 c 0.147655,-0.114843 0.188671,-0.336326 0.09844,-0.500388 L 18.359499,6.4340603 C 18.261062,6.2535926 18.055985,6.196171 17.875518,6.2535926 L 15.914982,7.041088 C 15.504828,6.7293711 15.070065,6.4668726 14.586083,6.2699987 L 14.290773,4.186417 C 14.25796,3.9895431 14.093899,3.8500908 13.897025,3.8500908 h -3.149982 c -0.196874,0 -0.352732,0.1394523 -0.385545,0.3363262 l -0.29531,2.0835817 C 9.5822059,6.4668726 9.1392398,6.7375742 8.7372889,7.041088 L 6.7767534,6.2535926 c -0.1804677,-0.065625 -0.3855447,0 -0.4839816,0.1804677 L 4.7259839,9.157482 c -0.098437,0.172265 -0.065625,0.385545 0.098437,0.500388 l 1.6652248,1.296086 c -0.041015,0.246092 -0.073828,0.516794 -0.073828,0.771089 0,0.254296 0.016406,0.524997 0.057422,0.77109 l -1.6652248,1.296086 c -0.1476554,0.114843 -0.1886708,0.336326 -0.098437,0.500388 l 1.5749909,2.723422 c 0.098437,0.180467 0.3035139,0.237889 0.4839816,0.180467 L 8.729086,16.409003 c 0.4101539,0.311717 0.844917,0.574215 1.328899,0.771089 l 0.29531,2.083582 C 10.394311,19.460548 10.550169,19.6 10.747043,19.6 h 3.149982 c 0.196874,0 0.360935,-0.139452 0.385544,-0.336326 l 0.295311,-2.083582 c 0.483982,-0.196874 0.926948,-0.459372 1.328899,-0.771089 l 1.960535,0.787495 c 0.180468,0.06563 0.385545,0 0.483982,-0.180467 l 1.574991,-2.723422 c 0.09844,-0.180468 0.05742,-0.385545 -0.09844,-0.500388 z m -5.856997,2.182018 c -1.62421,0 -2.9531081,-1.328898 -2.9531081,-2.953108 0,-1.624209 1.3288981,-2.953108 2.9531081,-2.953108 1.624209,0 2.953108,1.328899 2.953108,2.953108 0,1.62421 -1.328899,2.953108 -2.953108,2.953108 z"
       id="path4"
       style="fill:#b3b3b3;stroke-width:0.82030779"
       inkscape:connector-curvature="0" />
  </g>
</svg>
